# xmcd
#
# Track frame offsets: 
#        150
#        2405
#        18765
#        23275
#        39825
#        41870
#        56965
#        80162
#        82462
#        103297
#        124547
#        127112
#        142600
#        163122
#        163527
#        166352
#        195987
#        215975
#        216450
#        219735
#        221732
#
# Disc length: 3223 seconds
#
# Revision: 2
# Processed by: cddbd v1.4PL0 Copyright (c) Steve Scherf et al.
# Submitted via: ExactAudioCopy v0.90b4
#
DISCID=330c9515
DTITLE=P-27 - Jetzt Funkt's aa
DYEAR=1994
DGENRE=Hip-Hop
TTITLE0=Liebi Kinder
TTITLE1=Jetzt funkt's aa
TTITLE2=Paris 59
TTITLE3=Jazz Tongle
TTITLE4=De Riffer
TTITLE5=Hit da road Tschägg
TTITLE6=We let the whole shit flow
TTITLE7=Dr Drummler
TTITLE8=Judgin' Blind
TTITLE9=Run Baby Run
TTITLE10=Dr Zupfer
TTITLE11=Eat my fruits of funk
TTITLE12=Fründschaft
TTITLE13=Funky Stuff
TTITLE14=Dr Taschdr
TTITLE15=The Requiem
TTITLE16=Smoke this 1
TTITLE17=Return of the Mladen
TTITLE18=Und wenn sy nid ...
TTITLE19=Ivo Space Off
TTITLE20=Pur your funky Spacedüsn on
EXTD=Basel\nSwitzerland
EXTT0=
EXTT1=
EXTT2=
EXTT3=
EXTT4=
EXTT5=
EXTT6=
EXTT7=
EXTT8=
EXTT9=
EXTT10=
EXTT11=
EXTT12=
EXTT13=
EXTT14=
EXTT15=
EXTT16=
EXTT17=
EXTT18=
EXTT19=
EXTT20=
PLAYORDER=
